<svg xmlns="http://www.w3.org/2000/svg" xmlns:xlink="http://www.w3.org/1999/xlink" width="96" height="32" version="1.1" viewBox="0 0 96 32"><title>Kogo 4.5x</title><desc>Created with Sketch.</desc><g id="Responsive" fill="none" fill-rule="evenodd" stroke="none" stroke-width="1"><g id="Company-About-standard" fill="#FFF" transform="translate(-64.000000, -19.000000)"><g id="header-blue-01"><g id="Kogo-4.5x" transform="translate(64.000000, 19.000000)"><polygon id="Fill-1" points="11.52 26.15 10.656 27.24 12.606 30.275 12.403 31.68 20.673 31.68 21.244 30.275 17.921 26.15"/><polygon id="Fill-2" points="16.042 7.679 13.051 12.896 27.642 30.103 27.225 31.68 33.917 31.68 35.13 26.083 19.516 7.674"/><polygon id="Fill-3" points="22.241 .323 18.027 3.755 16.607 6.367 20.134 6.367 26.192 13.549 29.794 10.602 29.794 8.73 28.542 6.98 29.466 6.022"/><polygon id="Fill-4" points="7.167 18.295 5.196 18.295 0 24.871 0 31.68 5.574 31.68 6.557 30.403 10.859 24.854 17.077 24.854 18.992 21.932 12.248 13.955"/><g id="Group-13" transform="translate(41.696970, 7.789676)"><path id="Fill-5" d="M18.8590803,15.8711309 C17.6073659,15.8711309 16.9593129,15.670588 16.422725,15.1138472 C15.6181672,14.3116754 15.3051576,13.1978708 15.3051576,9.74472141 C15.3051576,6.26961241 15.6181672,5.1780904 16.422725,4.35363605 C16.936631,3.81917778 17.6073659,3.61863483 18.8590803,3.61863483 L23.0390222,3.61863483 C24.2907366,3.61863483 24.9391136,3.81917778 25.4753775,4.35363605 C26.2802593,5.1780904 26.5932689,6.26961241 26.5932689,9.74472141 C26.5932689,13.2201533 26.2802593,14.3116754 25.4753775,15.1138472 C24.9391136,15.670588 24.2907366,15.8711309 23.0390222,15.8711309 L18.8590803,15.8711309 Z M18.7028995,13.1733277 L23.195851,13.1733277 L23.195851,6.31191697 L18.7028995,6.31191697 L18.7028995,13.1733277 Z"/><path id="Fill-7" d="M36.7556798,7.49608918 C36.756976,7.53839373 36.757948,7.58263589 36.757948,7.62849274 L36.757948,15.8710986 L40.1780478,15.8710986 L40.1780478,7.22740684 C40.1780478,5.42316616 39.9765033,4.77697221 39.4625973,4.2867561 C38.9930829,3.81914549 38.322672,3.59631999 37.2718541,3.59631999 L35.7745276,3.59631999 C35.5904805,3.59631999 35.4232829,3.60213283 35.265806,3.61795667 L34.2658602,3.61795667 L32.5426872,5.16740123 L32.5426872,3.83819868 L32.5426872,3.61795667 L31.3878567,3.61795667 L31.3878567,3.61860254 L29.1355485,3.61860254 L29.1355485,15.8710986 L32.5556483,15.8710986 L32.5556483,7.49608918 L32.5550002,7.49608918 L32.5550002,6.35903326 L34.4625443,6.35903326 C34.4751813,6.35871032 34.4874943,6.35871032 34.5004554,6.35871032 L35.461518,6.35871032 C35.4799875,6.35871032 35.498133,6.35871032 35.5159544,6.35903326 L36.7566519,6.35903326 L36.7566519,7.49608918 L36.7556798,7.49608918 Z"/><polygon id="Fill-9" points="9.96 .231 14.03 .231 8.184 7.603 14.277 15.917 9.96 15.917 5.325 9.385 4.226 9.38 4.226 15.917 .561 15.917 .561 .231 4.226 .231 4.226 6.311 5.324 6.311"/><path id="Fill-11" d="M46.1939239,13.1776873 L50.6868754,13.1776873 L50.6868754,6.3117555 L46.1939239,6.3117555 L46.1939239,13.1776873 Z M50.6651657,3.61782749 L50.6651657,5.16727206 L48.9419927,3.61782749 L46.3731106,3.59619082 C45.14343,3.59619082 44.4283035,3.81901632 43.8693578,4.35379752 C43.1318734,5.11108128 42.7741482,6.76483402 42.7741482,9.79461495 C42.7741482,12.8017904 43.0647999,14.410978 43.7799264,15.1459792 C44.3388722,15.6807604 45.0037746,15.9261914 46.3225624,15.9261914 L50.6590092,15.9287749 L50.6651657,17.675856 L44.3077656,17.675856 L44.312626,18.3982627 L45.8673052,20.1156338 L50.9104537,20.1259677 C52.1621681,20.1259677 52.8776186,19.9034651 53.3244512,19.4355316 C53.8833969,18.8561853 54.1069752,18.4977269 54.1069752,16.3815305 L54.1069752,3.6187963 L50.6651657,3.61782749 Z"/></g></g></g></g></g></svg>