<svg xmlns="http://www.w3.org/2000/svg" xmlns:xlink="http://www.w3.org/1999/xlink" width="31" height="31" version="1.1" viewBox="0 0 31 31"><title>icn-control</title><desc>Created with Sketch.</desc><g id="Page-1" fill="none" fill-rule="evenodd" stroke="none" stroke-width="1"><g id="Desktop-HD" transform="translate(-435.000000, -118.000000)"><g id="Subnav" transform="translate(0.000000, 80.000000)"><g id="01-Products"><g id="Gateway" transform="translate(203.000000, 37.000000)"><g id="Kong-gateway" transform="translate(232.000000, 0.000000)"><g id="Group-10" transform="translate(0.000000, 1.000000)"><g id="icn-control"><rect id="Rectangle" width="1" height="25" x="15" y="3" fill="#3A8FE6"/><rect id="Rectangle" width="1" height="25" x="15" y="3" fill="#3A8FE6" transform="translate(15.500000, 15.500000) rotate(-270.000000) translate(-15.500000, -15.500000)"/><path id="Oval-3" fill-rule="nonzero" stroke="#1155CB" d="M15.5,30.5 C16.0522847,30.5 16.5,30.0522847 16.5,29.5 C16.5,28.9477153 16.0522847,28.5 15.5,28.5 C14.9477153,28.5 14.5,28.9477153 14.5,29.5 C14.5,30.0522847 14.9477153,30.5 15.5,30.5 Z"/><circle id="Oval-3" cx="1.5" cy="15.5" r="1" fill-rule="nonzero" stroke="#1155CB"/><rect id="Rectangle-9" width="4" height="4" x="13.5" y="13.5" fill="#FFF" fill-rule="nonzero" stroke="#C8A977"/><circle id="Oval-3" cx="29.5" cy="15.5" r="1" fill-rule="nonzero" stroke="#1155CB"/><path id="Oval-3" fill-rule="nonzero" stroke="#1155CB" d="M15.5,2.5 C16.0522847,2.5 16.5,2.05228475 16.5,1.5 C16.5,0.94771525 16.0522847,0.5 15.5,0.5 C14.9477153,0.5 14.5,0.94771525 14.5,1.5 C14.5,2.05228475 14.9477153,2.5 15.5,2.5 Z"/><path id="Oval-3" fill-rule="nonzero" stroke="#C8A977" d="M6,7.5 C6.82842712,7.5 7.5,6.82842712 7.5,6 C7.5,5.17157288 6.82842712,4.5 6,4.5 C5.17157288,4.5 4.5,5.17157288 4.5,6 C4.5,6.82842712 5.17157288,7.5 6,7.5 Z"/><path id="Oval-3" fill-rule="nonzero" stroke="#C8A977" d="M25,7.5 C25.8284271,7.5 26.5,6.82842712 26.5,6 C26.5,5.17157288 25.8284271,4.5 25,4.5 C24.1715729,4.5 23.5,5.17157288 23.5,6 C23.5,6.82842712 24.1715729,7.5 25,7.5 Z"/><path id="Oval-3" fill-rule="nonzero" stroke="#C8A977" d="M6,27.5 C6.82842712,27.5 7.5,26.8284271 7.5,26 C7.5,25.1715729 6.82842712,24.5 6,24.5 C5.17157288,24.5 4.5,25.1715729 4.5,26 C4.5,26.8284271 5.17157288,27.5 6,27.5 Z"/><path id="Oval-3" fill-rule="nonzero" stroke="#C8A977" d="M25,27.5 C25.8284271,27.5 26.5,26.8284271 26.5,26 C26.5,25.1715729 25.8284271,24.5 25,24.5 C24.1715729,24.5 23.5,25.1715729 23.5,26 C23.5,26.8284271 24.1715729,27.5 25,27.5 Z"/></g></g></g></g></g></g></g></g></svg>