<svg xmlns="http://www.w3.org/2000/svg" xmlns:xlink="http://www.w3.org/1999/xlink" width="72" height="72" version="1.1" viewBox="0 0 72 72"><title>icn-kubernetes</title><desc>Created with Sketch.</desc><g id="Page-1" fill="none" fill-rule="evenodd" stroke="none" stroke-width="1"><g id="Artboard" fill-rule="nonzero" transform="translate(-1258.000000, -735.000000)"><g id="icn-kubernetes" transform="translate(1259.000000, 736.000000)"><path id="Path-9" stroke="#004B80" stroke-linecap="round" d="M40.4166667,34.0416667 L53.9375,20.5208333"/><path id="Path-9" stroke="#004B80" stroke-linecap="round" d="M37.9583333,43.875 L45.3333333,59.8541667"/><path id="Path-9" stroke="#004B80" stroke-linecap="round" d="M24.4375,43.875 L31.8125,59.8541667" transform="translate(28.125000, 51.864583) scale(-1, 1) translate(-28.125000, -51.864583)"/><path id="Path-9" stroke="#004B80" stroke-linecap="round" d="M41.6458333,42.6458333 L58.8541667,38.9583333" transform="translate(50.250000, 40.802083) scale(1, -1) translate(-50.250000, -40.802083)"/><path id="Path-9" stroke="#004B80" stroke-linecap="round" d="M12.1458333,42.6458333 L29.3541667,38.9583333" transform="translate(20.750000, 40.802083) scale(-1, -1) translate(-20.750000, -40.802083)"/><path id="Path-9" stroke="#004B80" stroke-linecap="round" d="M17.0625,32.8125 L30.5833333,19.2916667" transform="translate(23.822917, 26.052083) scale(-1, 1) translate(-23.822917, -26.052083)"/><path id="Path-10" stroke="#004B80" stroke-linecap="round" d="M35.5,31.5833333 L35.5,13.1458333"/><circle id="Oval-2" cx="35.5" cy="37.729" r="6.146" stroke="#0573E3"/><circle id="Oval-2" cx="35.5" cy="37.729" r="17.208" stroke="#0573E3"/><polygon id="Path-11" stroke="#3A8FE6" points="0 44.074 6.25 14.259 35 0 62.5 12.963 70 45.37 51.25 70 20 70"/></g></g></g></svg>