<svg xmlns="http://www.w3.org/2000/svg" xmlns:xlink="http://www.w3.org/1999/xlink" width="53" height="60" version="1.1" viewBox="0 0 53 60"><title>icn-kong-enterprise</title><desc>Created with Sketch.</desc><g id="Page-1" fill="none" fill-rule="evenodd" stroke="none" stroke-width="1"><g id="Desktop-HD" transform="translate(-672.000000, -249.000000)"><g id="01-Products" transform="translate(335.000000, 187.000000)"><g id="offerings" transform="translate(0.000000, 32.000000)"><g id="icn-kong-enterprise" transform="translate(363.500000, 60.000000) rotate(-180.000000) translate(-363.500000, -60.000000) translate(336.000000, 29.000000)"><path id="Polygon-5" fill="#FFF" stroke="#004B80" stroke-width="2" d="M26.7454545,15.0794363 L12.2818182,23.3960272 L12.2818182,40.0221546 L26.7454545,48.3387455 L41.2090909,40.0221546 L41.2090909,23.3960272 L26.7454545,15.0794363 Z"/><g id="Group-14" fill="#062F4D" transform="translate(27.254545, 32.509091) rotate(-180.000000) translate(-27.254545, -32.509091) translate(17.254545, 23.509091)"><path id="Combined-Shape" d="M7.22793061,14.2973067 L10.7175062,14.2973067 L12.5293298,16.6760877 L12.2177322,17.4862739 L7.70945848,17.4862739 L7.82003678,16.6760877 L6.75717795,14.9255269 L7.22793061,14.2973067 Z M9.58846325,3.99739376 L11.4808812,3.99448984 L19.985026,14.3407863 L19.3242769,17.4862739 L15.6795678,17.4862739 L15.9063473,16.6000344 L7.95970959,6.92962485 L9.58846325,3.99739376 Z M12.8635828,0.0696072109 L16.6850149,3.24047325 L16.1959182,3.77362295 L16.8584438,4.74756004 L16.8584438,5.78942116 L14.9532973,7.42876214 L11.7491483,3.43256527 L9.88376023,3.43256527 L10.6348853,1.97920675 L12.8635828,0.0696072109 Z M4.88769477,9.89183372 L7.65457009,7.42876214 L11.3267982,11.9550822 L10.2841691,13.6131937 L6.89796264,13.6131937 L4.55544388,16.7619381 L4.02027821,17.4862739 L0.985026048,17.4862739 L0.985026048,13.6229052 L3.81418738,9.89183372 L4.88769477,9.89183372 Z"/></g><g id="Group-5" stroke-linecap="round" transform="translate(1.218182, 25.745455)"><polyline id="Path-7" stroke="#00BC4C" points="1.074 4.059 1.074 17.098 11.112 23.078 11.112 27.217 23.888 34.576"/><path id="Path-9" stroke="#088BE8" d="M1.53030051,21.2378378 L7.9182847,25.3773956"/><polyline id="Path-10" stroke="#0043BA" points="13.85 24.917 25.713 31.817 37.577 24.917"/><path id="Path-13" stroke="#00BC4C" d="M27.9948064,26.7572482 L37.207929,21.1577396"/><polyline id="Path-15" stroke="#00BC4C" points="51.265 7.659 51.265 20.778 43.877 25.457"/><path id="Path-16" stroke="#0043BA" d="M7.46200011,0.37985258 L7.46200011,14.3385749"/><polyline id="Path-8" stroke="#088BE8" points="4.268 2.22 4.268 14.799 23.432 26.297"/><polyline id="Path-12" stroke="#088BE8" points="28.451 34.116 41.227 26.757 41.227 19.383 44.421 17.098 44.421 11.281"/><polyline id="Path-14" stroke="#0043BA" points="48.071 9.039 48.071 18.478 43.421 21.778"/></g><g id="Group-5" stroke-linecap="round" transform="translate(27.190909, 17.754545) rotate(-180.000000) translate(-27.190909, -17.754545) translate(0.690909, 0.254545)"><polyline id="Path-7" stroke="#00BC4C" points="1.074 5.059 1.074 16.098 11.112 22.078 11.112 26.217 23.888 33.576"/><path id="Path-9" stroke="#088BE8" d="M1.53030051,20.2378378 L7.9182847,24.3773956"/><polyline id="Path-10" stroke="#0043BA" points="13.85 23.917 25.713 30.817 37.577 23.917"/><path id="Path-13" stroke="#00BC4C" d="M27.9948064,25.7572482 L36.207929,21.1577396"/><polyline id="Path-15" stroke="#00BC4C" points="51.265 9.199 51.265 19.778 44.877 23.457"/><path id="Path-16" stroke="#0043BA" d="M8.37456928,1.37985258 L8.37456928,13.3385749"/><polyline id="Path-8" stroke="#088BE8" points="4.724 3.22 4.724 14.258 23.432 25.297"/><polyline id="Path-12" stroke="#088BE8" points="28.451 33.116 41.683 25.297 41.683 17.923 45.334 15.178 45.334 11.901"/><polyline id="Path-14" stroke="#0043BA" points="48.528 10.119 48.528 17.018 44.421 19.778"/></g></g></g></g></g></g></svg>