<svg xmlns="http://www.w3.org/2000/svg" xmlns:xlink="http://www.w3.org/1999/xlink" width="30" height="29" version="1.1" viewBox="0 0 30 29"><title>icn-kongnation-md</title><desc>Created with Sketch.</desc><g id="Page-1" fill="none" fill-rule="evenodd" stroke="none" stroke-width="1"><g id="Desktop-HD" stroke-width="2" transform="translate(-1836.000000, -548.000000)"><g id="03-Docs" transform="translate(1797.000000, 187.000000)"><g id="icn-kongnation-md" transform="translate(40.000000, 362.000000)"><polyline id="Stroke-1" stroke="#004B80" points=".759 18.06 5.063 18.06 9.492 21.852 11.581 21.852 11.581 14.588 8.348 14.588 7.105 13.784 6.252 13.784 6.252 12.808 10.26 10.091 10.26 3.169 5.063 3.169"/><polyline id="Stroke-12" stroke="#004B80" points="23.44 3.375 18.056 7.851 18.056 10.34 19.219 10.804 23.44 10.804 19.011 10.804 16.875 12.884 16.875 14.479 18.882 16.434 21.572 16.434 23.44 22"/><path id="Stroke-2" stroke="#0573E3" d="M27.2698759,13.1299855 C27.2698759,20.3817874 21.1656552,26.2599258 13.634938,26.2599258 C6.10422067,26.2599258 0,20.3817874 0,13.1299855 C0,5.8781837 6.10422067,4.52756561e-05 13.634938,4.52756561e-05 C21.1656552,4.52756561e-05 27.2698759,5.8781837 27.2698759,13.1299855 Z"/></g></g></g></g></svg>