<svg xmlns="http://www.w3.org/2000/svg" xmlns:xlink="http://www.w3.org/1999/xlink" width="65" height="65" version="1.1" viewBox="0 0 65 65"><title>icn-enterprise-plugins</title><desc>Created with Sketch.</desc><g id="Page-1" fill="none" fill-rule="evenodd" stroke="none" stroke-width="1"><g id="Artboard" transform="translate(-1855.000000, -554.000000)"><g id="icn-enterprise-plugins" transform="translate(1855.500000, 554.500000)"><rect id="Combined-Shape" width="28" height="14" x="33.5" y="35.5" stroke="#004B80"/><rect id="Combined-Shape" width="30" height="12" x=".5" y="51.5" stroke="#004B80"/><rect id="Combined-Shape" width="28" height="14" x="33.5" y="19.5" stroke="#C8A977"/><rect id="Combined-Shape" width="30" height="12" x="33.5" y="51.5" stroke="#3A8FE6"/><path id="Combined-Shape" stroke="#1155CB" d="M33.5,6.5 L33.5,17.5 L61.5,17.5 L61.5,6.5 L55.5,6.5 L55.5,1 C55.5,0.723857625 55.2761424,0.5 55,0.5 L40,0.5 C39.7238576,0.5 39.5,0.723857625 39.5,1 L39.5,6.5 L33.5,6.5 Z"/><rect id="Combined-Shape" width="28" height="14" x="2.5" y="35.5" stroke="#C8A977"/><path id="Combined-Shape" stroke="#1155CB" d="M2.5,22.5 L2.5,33.5 L30.5,33.5 L30.5,22.5 L24.5,22.5 L24.5,17 C24.5,16.7238576 24.2761424,16.5 24,16.5 L9,16.5 C8.72385763,16.5 8.5,16.7238576 8.5,17 L8.5,22.5 L2.5,22.5 Z"/></g></g></g></svg>