<svg xmlns="http://www.w3.org/2000/svg" xmlns:xlink="http://www.w3.org/1999/xlink" width="33" height="33" version="1.1" viewBox="0 0 33 33"><title>icn-proxy</title><desc>Created with Sketch.</desc><g id="Page-1" fill="none" fill-rule="evenodd" stroke="none" stroke-width="1"><g id="Desktop-HD" transform="translate(-747.000000, -117.000000)"><g id="Subnav" transform="translate(0.000000, 80.000000)"><g id="01-Products"><g id="Gateway" transform="translate(203.000000, 37.000000)"><g id="Kong-gateway" transform="translate(232.000000, 0.000000)"><g id="Group-9" transform="translate(311.000000, 0.000000)"><g id="icn-proxy" transform="translate(1.000000, 0.000000)"><rect id="Rectangle-11" width="24" height="24" x="4.5" y="4.5" fill-rule="nonzero" stroke="#3A8FE6"/><rect id="Rectangle-9" width="14" height="14" x="9.5" y="9.5" fill-rule="nonzero" stroke="#C8A977"/><rect id="Rectangle" width="4" height="1" x="0" y="24" fill="#1155CB"/><g id="Group-11" fill="#1155CB" transform="translate(29.000000, 8.000000)"><rect id="Rectangle" width="4" height="1" x="0" y="16"/><rect id="Rectangle" width="4" height="1" x="0" y="4"/><rect id="Rectangle" width="4" height="1" x="0" y="12"/><rect id="Rectangle" width="4" height="1" x="0" y="8"/><rect id="Rectangle" width="4" height="1" x="0" y="0"/></g><g id="Group-11" fill="#1155CB" transform="translate(16.500000, 2.000000) rotate(-90.000000) translate(-16.500000, -2.000000) translate(14.500000, -6.500000)"><rect id="Rectangle" width="4" height="1" x="0" y="16"/><rect id="Rectangle" width="4" height="1" x="0" y="4"/><rect id="Rectangle" width="4" height="1" x="0" y="12"/><rect id="Rectangle" width="4" height="1" x="0" y="8"/><rect id="Rectangle" width="4" height="1" x="0" y="0"/></g><g id="Group-11" fill="#1155CB" transform="translate(16.500000, 31.000000) rotate(-90.000000) translate(-16.500000, -31.000000) translate(14.500000, 22.500000)"><rect id="Rectangle" width="4" height="1" x="0" y="16"/><rect id="Rectangle" width="4" height="1" x="0" y="4"/><rect id="Rectangle" width="4" height="1" x="0" y="12"/><rect id="Rectangle" width="4" height="1" x="0" y="8"/><rect id="Rectangle" width="4" height="1" x="0" y="0"/></g><rect id="Rectangle" width="4" height="1" x="0" y="12" fill="#1155CB"/><rect id="Rectangle" width="4" height="1" x="0" y="20" fill="#1155CB"/><rect id="Rectangle" width="4" height="1" x="0" y="16" fill="#1155CB"/><rect id="Rectangle" width="4" height="1" x="0" y="8" fill="#1155CB"/></g></g></g></g></g></g></g></g></svg>